# This file uses centimeters as units for non-parametric coordinates.

mtllib testmesh.mtl
g default
v -0.887116 0.000000 0.845784
v 0.887116 0.000000 0.845784
v -0.765517 6.911075 0.348702
v -0.617592 7.058595 0.312920
v -0.752280 6.902950 0.128574
v -0.614283 7.068480 0.139337
v -0.887116 0.000000 -0.928448
v 0.887116 0.000000 -0.928448
v 0.287188 4.631291 0.177090
v -0.630979 4.510280 0.341957
v -0.586750 4.928851 -0.560272
v 0.347255 4.653975 -0.580337
v 0.610983 2.047303 0.501232
v -0.756922 2.320886 0.652171
v -0.756922 2.320885 -0.552615
v 0.308382 2.567728 -0.828683
v -0.189689 2.481517 0.944851
v -0.078946 0.000000 1.185561
v -0.078946 0.000000 -1.268226
v -0.145865 2.556899 -0.953738
v -0.020414 4.590577 -0.786783
v -0.709290 7.023305 0.003398
v -0.699526 6.992074 0.411074
v 0.043971 4.612993 0.358373
v 0.790872 2.024289 0.345378
v 1.226894 0.000000 -0.014857
v -1.226894 0.000000 -0.014857
v -1.046834 2.320885 0.102652
v -0.970141 4.900840 -0.166489
v -0.765517 6.911075 0.234109
v -0.733192 7.028096 0.233708
v -0.617499 7.092625 0.234109
v 0.348616 4.610459 -0.269531
v 0.618896 3.498094 0.855634
v -0.088306 3.420985 0.788802
v -0.534644 3.481758 0.384054
v -0.739420 3.481758 -0.096587
v -0.534644 3.481758 -0.567151
v 0.050359 3.328969 -1.254471
v 0.312325 3.356396 -1.033147
v 0.809284 3.588355 -0.405354
v 0.020723 5.721406 0.316197
v -0.313748 5.619060 0.332247
v -0.518639 5.554727 0.230050
v -0.831033 5.122539 -0.208133
v -0.683575 5.139507 -0.370690
v -0.317254 5.597895 -0.365484
v -0.066819 5.700647 -0.282129
v 0.195004 5.769454 -0.065615
v 0.830188 1.548643 0.733707
v -0.166402 1.045122 1.065751
v -0.828863 1.038452 0.759154
v -0.908726 1.017028 0.032610
v -0.828863 1.038452 -0.760286
v -0.219696 1.022342 -0.869831
v 0.632387 1.029929 -0.594462
v 0.917262 1.546690 0.321525
v -1.164418 2.776639 -0.257753
v -1.074554 2.776639 -0.460867
v -1.069129 3.136476 -0.319511
v -1.005654 3.136476 -0.465373
v 1.001278 1.745379 -0.465069
v 1.049161 1.847518 -0.241387
v 0.923265 2.058634 -0.479211
v 1.023028 1.946270 -0.236454
v -0.579372 1.590419 1.268226
v -0.766664 1.588533 1.181544
v -0.585955 1.996519 1.234045
v -0.746325 1.951105 1.151297
v 0.450327 5.003319 0.016138
v 0.407174 5.002775 0.118641
v 0.397639 5.400843 0.086079
v 0.337863 5.384363 0.217037
vt 0.411908 0.011860
vt 0.507612 0.011860
vt 0.517014 0.179821
vt 0.410006 0.137631
vt 0.379940 0.962008
vt 0.394655 0.983816
vt 0.374244 0.985886
vt 0.364787 0.963299
vt 0.069063 0.159942
vt 0.683785 0.135783
vt 0.024809 0.011860
vt 0.599599 0.011860
vt 0.561173 0.181565
vt 0.130113 0.011860
vt 0.236207 0.011860
vt 0.240989 0.143012
vt 0.146248 0.147653
vt 0.453903 0.565169
vt 0.503019 0.566266
vt 0.463431 0.746149
vt 0.410127 0.735980
vt 0.200083 0.659441
vt 0.279883 0.635949
vt 0.279942 0.674067
vt 0.244065 0.684042
vt 0.208347 0.777185
vt 0.176691 0.816936
vt 0.097930 0.620804
vt 0.582739 0.573591
vt 0.536257 0.759426
vt 0.409859 0.406278
vt 0.409466 0.297747
vt 0.512159 0.253906
vt 0.480954 0.406609
vt 0.211816 0.348556
vt 0.237833 0.343272
vt 0.235042 0.389253
vt 0.215118 0.393680
vt 0.693344 0.424254
vt 0.697602 0.328510
vt 0.080447 0.350739
vt 0.607172 0.436472
vt 0.543373 0.254947
vt 0.327287 0.011860
vt 0.321977 0.140445
vt 0.187761 0.454580
vt 0.166275 0.291112
vt 0.375277 0.939048
vt 0.364985 0.939043
vt 0.353761 0.567944
vt 0.373690 0.729553
vt 0.326916 0.283328
vt 0.338908 0.430981
vt 0.267099 0.442970
vt 0.261776 0.289938
vt 0.384350 0.936787
vt 0.390985 0.951233
vt 0.393746 0.970962
vt 0.520074 0.626350
vt 0.534622 0.627824
vt 0.519735 0.690180
vt 0.501667 0.687906
vt 0.355379 0.198184
vt 0.377886 0.197056
vt 0.376642 0.240523
vt 0.357638 0.235921
vt 0.612563 0.222299
vt 0.640512 0.212586
vt 0.643138 0.251122
vt 0.612126 0.235212
vt 0.786974 0.156723
vt 0.699929 0.011860
vt 0.809868 0.011860
vt 0.640434 0.781918
vt 0.632003 0.580784
vt 0.590572 0.779253
vt 0.729656 0.425864
vt 0.759939 0.333701
vt 0.079227 0.448926
vt 0.697104 0.591193
vt 0.409754 0.989187
vn -0.030946 0.111281 0.993307
vn 0.709740 0.104857 0.696617
vn 0.079363 0.062905 0.994859
vn 0.664502 0.315823 0.677269
vn 0.460529 0.869842 0.176887
vn 0.303297 0.835740 -0.457767
vn -0.753019 0.656399 0.045858
vn -0.442501 0.573127 -0.689723
vn -0.061310 0.129292 -0.989709
vn 0.624415 0.115090 -0.772567
vn 0.077250 0.364039 -0.928175
vn 0.651787 0.374976 -0.659217
vn 0.958629 0.249320 -0.137370
vn 0.979761 0.053387 0.192922
vn -0.544012 0.209720 -0.812446
vn -0.971464 0.235539 -0.027924
vn -0.776890 0.196912 -0.598053
vn -0.994057 0.086148 0.066558
vn 0.808015 0.091306 0.582044
vn 0.568420 0.238202 0.787501
vn -0.016115 0.186506 0.982322
vn -0.260199 -0.098501 0.960518
vn -0.607278 0.152092 -0.779795
vn -0.952926 0.218999 -0.209692
vn -0.609631 0.294786 -0.735834
vn -0.971126 0.218749 0.095198
vn 0.563225 0.384837 -0.731217
vn 0.687978 0.394474 -0.609161
vn -0.186124 0.319262 -0.929209
vn 0.026204 0.305270 -0.951905
vn 0.954419 0.232089 -0.187670
vn 0.856436 0.462720 -0.228928
vn -0.389565 0.272776 0.879677
vn 0.030992 0.206114 0.978037
vn 0.556340 0.193518 0.808107
vn 0.580304 0.134013 0.803298
vn -0.998175 -0.051449 0.031628
vn -0.907354 0.400656 -0.127217
vn -0.801103 -0.032431 -0.597647
vn -0.611125 0.409687 -0.677262
vn 0.664706 0.094559 -0.741097
vn 0.617958 -0.054093 -0.784348
vn 0.000622 -0.038955 -0.999241
vn -0.311824 -0.102019 -0.944647
vn 0.910127 0.271125 0.313304
vn 0.967164 0.166695 -0.191853
vn -0.755364 0.140323 0.640105
vn -0.823060 -0.161408 0.544537
vn -0.659632 0.155895 -0.735243
vn -0.670659 -0.084625 -0.736923
vn -0.994612 0.060638 0.084088
vn -0.886373 0.153846 -0.436663
vn -0.621548 0.109325 0.775710
vn -0.657281 -0.064010 0.750922
vn -0.860567 0.283125 0.423396
vn -0.687333 0.207276 0.696139
vn -0.953280 0.278006 0.118197
vn -0.974589 0.035511 0.221168
vn -0.308916 0.401529 0.862175
vn -0.881451 0.052417 0.469357
vn 0.221086 0.826456 0.517775
vn 0.998332 -0.025422 -0.051842
vn 0.951038 0.249427 0.182520
vn 0.862996 -0.052495 0.502476
vn 0.716054 0.229375 0.659282
vn -0.833611 -0.098070 0.543576
vn -0.106411 -0.150662 0.982842
vn -0.678608 0.267311 0.684132
vn -0.270321 0.468121 0.841303
vn 0.992235 0.080395 0.094905
vn 0.924467 -0.085305 -0.371597
vn 0.912029 0.408532 -0.036122
vn 0.740752 0.467598 -0.482327
s 1
g Stalagmite
usemtl lambert2SG
f 18/1/1 2/2/2 51/4/3
f 51/4/3 2/2/2 50/3/4
f 32/6/5 6/7/6 31/5/7
f 31/5/7 6/7/6 22/8/8
f 55/71/9 56/10/10 19/73/11
f 19/73/11 56/10/10 8/72/12
f 8/72/12 56/10/10 26/12/13
f 26/12/13 56/10/10 57/13/14
f 7/14/15 27/15/16 54/17/17
f 54/17/17 27/15/16 53/16/18
f 9/19/19 42/20/20 24/18/21
f 24/18/21 42/20/20 43/21/22
f 11/22/23 29/23/24 46/25/25
f 46/25/25 29/23/24 45/24/26
f 48/76/27 12/75/28 47/74/29
f 47/74/29 12/75/28 21/80/30
f 12/75/28 48/76/27 33/29/31
f 33/29/31 48/76/27 49/30/32
f 35/31/33 17/32/34 34/34/35
f 34/34/35 17/32/34 13/33/36
f 58/36/37 60/37/38 59/35/39
f 59/35/39 60/37/38 61/38/40
f 40/39/41 16/40/42 39/77/43
f 39/77/43 16/40/42 20/78/44
f 25/43/45 16/40/42 41/42/46
f 41/42/46 16/40/42 40/39/41
f 18/1/1 51/4/3 1/44/47
f 1/44/47 51/4/3 52/45/48
f 54/17/17 55/9/9 7/14/15
f 7/14/15 55/9/9 19/11/11
f 39/79/43 20/41/44 38/46/49
f 38/46/49 20/41/44 15/47/50
f 46/25/25 47/26/29 11/22/23
f 11/22/23 47/26/29 21/28/30
f 30/48/51 31/5/7 5/49/52
f 5/49/52 31/5/7 22/8/8
f 10/50/53 24/18/21 44/51/54
f 44/51/54 24/18/21 43/21/22
f 14/52/55 17/32/34 36/53/56
f 36/53/56 17/32/34 35/31/33
f 26/12/13 57/13/14 2/2/2
f 2/2/2 57/13/14 50/3/4
f 27/15/16 1/44/47 53/16/18
f 53/16/18 1/44/47 52/45/48
f 37/54/57 28/55/58 36/53/56
f 36/53/56 28/55/58 14/52/55
f 29/23/24 10/50/53 45/24/26
f 45/24/26 10/50/53 44/51/54
f 23/57/59 31/5/7 3/56/60
f 3/56/60 31/5/7 30/48/51
f 23/57/59 4/58/61 31/5/7
f 31/5/7 4/58/61 32/6/5
f 70/60/62 72/61/63 71/59/64
f 71/59/64 72/61/63 73/62/65
f 13/33/36 25/43/45 34/34/35
f 34/34/35 25/43/45 41/42/46
f 35/31/33 34/34/35 24/18/21
f 24/18/21 34/34/35 9/19/19
f 35/31/33 24/18/21 36/53/56
f 36/53/56 24/18/21 10/50/53
f 29/23/24 37/54/57 10/50/53
f 10/50/53 37/54/57 36/53/56
f 38/46/49 37/54/57 11/22/23
f 11/22/23 37/54/57 29/23/24
f 11/22/23 21/28/30 38/46/49
f 38/46/49 21/28/30 39/79/43
f 12/75/28 40/39/41 21/80/30
f 21/80/30 40/39/41 39/77/43
f 33/29/31 41/42/46 12/75/28
f 12/75/28 41/42/46 40/39/41
f 34/34/35 41/42/46 9/19/19
f 9/19/19 41/42/46 33/29/31
f 43/21/22 42/20/20 23/57/59
f 23/57/59 42/20/20 4/58/61
f 44/51/54 43/21/22 3/56/60
f 3/56/60 43/21/22 23/57/59
f 45/24/26 44/51/54 30/48/51
f 30/48/51 44/51/54 3/56/60
f 46/25/25 45/24/26 5/49/52
f 5/49/52 45/24/26 30/48/51
f 22/8/8 47/26/29 5/49/52
f 5/49/52 47/26/29 46/25/25
f 6/7/6 48/27/27 22/8/8
f 22/8/8 48/27/27 47/26/29
f 48/76/27 6/81/6 49/30/32
f 49/30/32 6/81/6 32/6/5
f 49/30/32 32/6/5 42/20/20
f 42/20/20 32/6/5 4/58/61
f 50/3/4 13/33/36 51/4/3
f 51/4/3 13/33/36 17/32/34
f 67/63/66 66/64/67 69/66/68
f 69/66/68 66/64/67 68/65/69
f 28/55/58 53/16/18 14/52/55
f 14/52/55 53/16/18 52/45/48
f 54/17/17 53/16/18 15/47/50
f 15/47/50 53/16/18 28/55/58
f 20/41/44 55/9/9 15/47/50
f 15/47/50 55/9/9 54/17/17
f 20/78/44 16/40/42 55/71/9
f 55/71/9 16/40/42 56/10/10
f 63/67/70 62/68/71 65/70/72
f 65/70/72 62/68/71 64/69/73
f 50/3/4 57/13/14 13/33/36
f 13/33/36 57/13/14 25/43/45
f 28/55/58 58/36/37 15/47/50
f 15/47/50 58/36/37 59/35/39
f 28/55/58 37/54/57 58/36/37
f 58/36/37 37/54/57 60/37/38
f 38/46/49 61/38/40 37/54/57
f 37/54/57 61/38/40 60/37/38
f 38/46/49 15/47/50 61/38/40
f 61/38/40 15/47/50 59/35/39
f 56/10/10 62/68/71 57/13/14
f 57/13/14 62/68/71 63/67/70
f 16/40/42 64/69/73 56/10/10
f 56/10/10 64/69/73 62/68/71
f 16/40/42 25/43/45 64/69/73
f 64/69/73 25/43/45 65/70/72
f 57/13/14 63/67/70 25/43/45
f 25/43/45 63/67/70 65/70/72
f 51/4/3 66/64/67 52/45/48
f 52/45/48 66/64/67 67/63/66
f 51/4/3 17/32/34 66/64/67
f 66/64/67 17/32/34 68/65/69
f 17/32/34 14/52/55 68/65/69
f 68/65/69 14/52/55 69/66/68
f 52/45/48 67/63/66 14/52/55
f 14/52/55 67/63/66 69/66/68
f 33/29/31 70/60/62 9/19/19
f 9/19/19 70/60/62 71/59/64
f 33/29/31 49/30/32 70/60/62
f 70/60/62 49/30/32 72/61/63
f 42/20/20 73/62/65 49/30/32
f 49/30/32 73/62/65 72/61/63
f 42/20/20 9/19/19 73/62/65
f 73/62/65 9/19/19 71/59/64
