# This file uses centimeters as units for non-parametric coordinates.

mtllib UVtest.mtl
g default
v -0.500000 -0.500000 0.500000
v 0.500000 -0.500000 0.500000
v -0.357961 0.500000 0.357961
v 0.357961 0.500000 0.357961
v -0.357961 0.500000 -0.357961
v 0.357961 0.500000 -0.357961
v -0.500000 -0.500000 -0.500000
v 0.500000 -0.500000 -0.500000
v -0.500000 1.453344 0.500000
v 0.500000 1.453344 0.500000
v 0.500000 1.453344 -0.500000
v -0.500000 1.453344 -0.500000
v -0.284851 2.338171 0.284851
v 0.284851 2.338171 0.284851
v 0.284851 2.338171 -0.284851
v -0.284851 2.338171 -0.284851
vt 0.816203 0.033407
vt 0.305279 0.514067
vt 0.657493 0.671213
vt 0.354158 0.174081
vt 0.276159 0.746581
vt 0.809735 0.302897
vt 0.034554 0.899523
vt 0.306486 0.156452
vt 0.041619 0.972521
vt 0.142438 0.973448
vt 0.811083 0.509499
vt 0.777316 0.635032
vt 0.660360 0.033407
vt 0.660360 0.189250
vt 0.194982 0.395474
vt 0.752187 0.324993
vt 0.305364 0.783377
vt 0.707850 0.900240
vt 0.212610 0.940578
vt 0.707705 0.356005
vt 0.247031 0.754987
vt 0.751444 0.852780
vt 0.162171 0.908968
vt 0.194243 0.149317
vt 0.215309 0.026330
vt 0.635578 0.297359
vt 0.288615 0.028661
vt 0.247033 0.353263
vt 0.238799 0.419696
vt 0.768713 0.827106
vt 0.238231 0.743848
vt 0.195341 0.966251
vt 0.669688 0.392711
vt 0.204141 0.977391
vt 0.300613 0.695540
vt 0.660032 0.208941
vt 0.194636 0.791308
vt 0.268349 0.419803
vt 0.242159 0.940685
vt 0.770760 0.201010
vt 0.138030 0.274386
vt 0.728022 0.421100
vt 0.205616 0.199984
vt 0.788502 0.696982
vt 0.312830 0.388791
vt 0.729343 0.703665
vt 0.317659 0.639340
vt 0.724896 0.802885
vt 0.694613 0.614945
vt 0.306741 0.600150
vt 0.815163 0.663522
vt 0.185447 0.603120
vt 0.778609 0.177157
vt 0.174528 0.620606
vt 0.692824 0.509499
vt 0.208736 0.514067
vn 0.000000 0.140627 0.990063
vn 0.000000 0.140627 0.990063
vn 0.000000 0.140627 0.990063
vn 0.000000 0.140627 0.990063
vn 0.000000 1.000000 0.000000
vn 0.000000 1.000000 0.000000
vn 0.000000 1.000000 0.000000
vn 0.000000 1.000000 0.000000
vn 0.000000 0.140627 -0.990063
vn 0.000000 0.140627 -0.990063
vn 0.000000 0.140627 -0.990063
vn 0.000000 0.140627 -0.990063
vn 0.000000 -1.000000 0.000000
vn 0.000000 -1.000000 0.000000
vn 0.000000 -1.000000 0.000000
vn 0.000000 -1.000000 0.000000
vn 0.990063 0.140627 0.000000
vn 0.990063 0.140627 0.000000
vn 0.990063 0.140627 0.000000
vn 0.990063 0.140627 0.000000
vn -0.990063 0.140627 0.000000
vn -0.990063 0.140627 0.000000
vn -0.990063 0.140627 0.000000
vn -0.990063 0.140627 0.000000
vn 0.000000 -0.147363 0.989082
vn 0.000000 -0.147363 0.989082
vn 0.000000 0.045712 0.998955
vn 0.000000 0.017509 0.999847
vn 0.989082 -0.147364 0.000000
vn 0.989082 -0.147364 0.000000
vn 0.998955 0.045712 0.000000
vn 0.999847 0.017509 0.000000
vn 0.000000 -0.147363 -0.989082
vn 0.000000 -0.147363 -0.989082
vn 0.000000 0.045712 -0.998955
vn 0.000000 0.017509 -0.999847
vn -0.989082 -0.147364 0.000000
vn -0.989082 -0.147364 0.000000
vn -0.998955 0.045712 0.000000
vn -0.999847 0.017509 0.000000
vn 0.000000 0.236270 0.971687
vn 0.000000 0.236270 0.971687
vn 0.971687 0.236270 0.000000
vn 0.971687 0.236270 0.000000
vn 0.000000 0.236270 -0.971687
vn 0.000000 0.236270 -0.971687
vn -0.971687 0.236270 0.000000
vn -0.971687 0.236270 0.000000
s 1
g pCube1
usemtl lambert2SG
f 1/56/1 2/2/2 3/52/3
f 3/52/3 2/2/2 4/50/4
s 2
f 13/19/5 14/39/6 16/32/7
f 16/32/7 14/39/6 15/34/8
s 3
f 5/25/9 6/27/10 7/24/11
f 7/24/11 6/27/10 8/8/12
s 4
f 7/7/13 8/23/14 1/9/15
f 1/9/15 8/23/14 2/10/16
s 5
f 2/55/17 8/11/18 4/49/19
f 4/49/19 8/11/18 6/12/20
s 6
f 7/13/21 1/1/22 5/14/23
f 5/14/23 1/1/22 3/53/24
s 7
f 3/3/25 4/51/26 9/46/27
f 9/46/27 4/51/26 10/44/28
s 8
f 4/4/29 6/28/30 10/43/31
f 10/43/31 6/28/30 11/41/32
s 9
f 6/6/33 5/26/34 11/40/35
f 11/40/35 5/26/34 12/36/36
s 10
f 5/5/37 3/54/38 12/35/39
f 12/35/39 3/54/38 9/47/40
s 7
f 9/15/27 10/45/28 13/29/41
f 13/29/41 10/45/28 14/38/42
s 8
f 10/16/31 11/42/32 14/20/43
f 14/20/43 11/42/32 15/33/44
s 9
f 11/17/35 12/37/36 15/21/45
f 15/21/45 12/37/36 16/31/46
s 10
f 12/18/39 9/48/40 16/22/47
f 16/22/47 9/48/40 13/30/48
